<svg width="28" height="28" viewBox="0 0 28 28" fill="none" xmlns="http://www.w3.org/2000/svg">
<g id="fe:search">
<g id="feSearch0">
<g id="feSearch1">
<path id="feSearch2" fill-rule="evenodd" clip-rule="evenodd" d="M19.0459 17.3825L25.3226 23.6592C25.5432 23.88 25.667 24.1793 25.6669 24.4914C25.6668 24.8035 25.5427 25.1028 25.322 25.3234C25.1012 25.5441 24.8018 25.6679 24.4897 25.6678C24.1776 25.6677 23.8783 25.5436 23.6577 25.3229L17.3811 19.0462C15.5047 20.4995 13.1452 21.1834 10.7825 20.9588C8.41986 20.7341 6.23149 19.6179 4.66262 17.8371C3.09374 16.0562 2.26221 13.7446 2.33718 11.3725C2.41215 9.00035 3.388 6.74586 5.06619 5.06766C6.74439 3.38946 8.99888 2.41362 11.371 2.33865C13.7432 2.26368 16.0548 3.09521 17.8356 4.66408C19.6164 6.23296 20.7327 8.42133 20.9573 10.784C21.1819 13.1467 20.498 15.5062 19.0447 17.3825H19.0459ZM11.6667 18.667C13.5232 18.667 15.3037 17.9295 16.6165 16.6168C17.9292 15.304 18.6667 13.5235 18.6667 11.667C18.6667 9.8105 17.9292 8.03003 16.6165 6.71727C15.3037 5.40452 13.5232 4.66702 11.6667 4.66702C9.8102 4.66702 8.02973 5.40452 6.71697 6.71727C5.40422 8.03003 4.66672 9.8105 4.66672 11.667C4.66672 13.5235 5.40422 15.304 6.71697 16.6168C8.02973 17.9295 9.8102 18.667 11.6667 18.667Z" fill="white"/>
</g>
</g>
</g>
</svg>
