<svg width="48" height="48" viewBox="0 0 48 48" fill="none" xmlns="http://www.w3.org/2000/svg">
<g id="Group 33">
<circle id="Ellipse 9" cx="24" cy="24" r="24" fill="#ADD8E6"/>
<g id="Group">
<path id="Vector" d="M33.4254 27.0003C33.435 26.8702 33.417 26.7395 33.3728 26.6167C33.3285 26.494 33.2589 26.3819 33.1685 26.2878C33.0781 26.1937 32.9689 26.1196 32.848 26.0705C32.7272 26.0213 32.5973 25.9981 32.4669 26.0025H16.3079C16.0829 25.9978 15.8639 26.0749 15.6914 26.2194C15.5189 26.3638 15.4046 26.5659 15.3697 26.7882H15.3571C15.3571 26.7882 2.78571 29.8996 2 48.0025H5.14286L24 43.2882L42.8571 48.0025H46C45.3337 31.9786 36.1864 27.8835 33.4254 27.0003Z" fill="#F8312F"/>
<path id="Vector_2" d="M11.429 48.0023L9.0719 39.3594L11.429 30.4887C12.6252 29.2681 13.9886 28.2237 15.4786 27.3867C15.5493 27.5061 15.6515 27.613 15.7882 27.6979L24.0005 33.0737L32.9875 27.6979C32.9981 27.6908 33.0086 27.6835 33.0189 27.6759C34.3232 28.4616 35.5096 29.4107 36.5719 30.4887L38.929 39.3594L36.5719 48.0023H11.429Z" fill="#007ACF"/>
<path id="Vector_3" d="M11.4284 48.0019V30.4883C7.37727 34.5976 5.1427 40.5769 5.1427 46.4304V48.0019H11.4284ZM36.5713 30.4883V48.0019H42.857V46.4304C42.857 40.5753 40.6224 34.5991 36.5713 30.4883ZM19.8073 37.0019H28.1924C28.4744 37.002 28.7512 37.0781 28.9936 37.2221C29.2361 37.366 29.4354 37.5726 29.5705 37.8201C29.7057 38.0676 29.7718 38.3469 29.7618 38.6287C29.7519 38.9106 29.6663 39.1845 29.514 39.4219L25.3214 45.9464C25.1791 46.1676 24.9835 46.3496 24.7526 46.4756C24.5217 46.6016 24.2629 46.6677 23.9998 46.6677C23.7368 46.6677 23.478 46.6016 23.2471 46.4756C23.0162 46.3496 22.8206 46.1676 22.6783 45.9464L18.4841 39.4219C18.3319 39.1846 18.2463 38.9108 18.2363 38.6291C18.2263 38.3474 18.2922 38.0682 18.4272 37.8208C18.5622 37.5734 18.7612 37.3668 19.0035 37.2227C19.2457 37.0786 19.5223 37.0023 19.8041 37.0019H19.8073Z" fill="#0092E7"/>
<path id="Vector_4" d="M23.9535 33.7483C24.3703 33.7483 24.77 33.5828 25.0647 33.2881C25.3594 32.9934 25.5249 32.5937 25.5249 32.1769C25.5249 31.7601 25.3594 31.3604 25.0647 31.0657C24.77 30.771 24.3703 30.6055 23.9535 30.6055C23.5367 30.6055 23.137 30.771 22.8423 31.0657C22.5476 31.3604 22.3821 31.7601 22.3821 32.1769C22.3821 32.5937 22.5476 32.9934 22.8423 33.2881C23.137 33.5828 23.5367 33.7483 23.9535 33.7483Z" fill="#FCD53F"/>
<path id="Vector_5" d="M24.0002 29.9301C22.2606 29.9301 20.8573 28.4152 20.8573 26.5374V22.3244C20.8573 20.4465 22.2606 18.9316 24.0002 18.9316C25.7397 18.9316 27.143 20.4465 27.143 22.3244V26.5389C27.143 28.4168 25.7397 29.9301 24.0002 29.9301Z" fill="#F4C6AD"/>
<path id="Vector_6" d="M33.8213 9.17158C33.3499 8.35443 32.6113 7.78872 31.7942 7.50586C30.8942 7.21287 30.1263 6.61193 29.6256 5.80872C29.1606 5.03642 28.4321 4.45832 27.5743 4.18106C26.7166 3.9038 25.7875 3.9461 24.9584 4.30015C24.3456 4.56729 23.6542 4.56729 23.0413 4.30015C22.5856 4.11158 22.0984 4.00158 21.5799 4.00158C20.2442 4.00158 19.0656 4.69301 18.4056 5.74586C17.887 6.56301 17.117 7.19158 16.1899 7.50586C15.3256 7.80444 14.5713 8.41729 14.1156 9.28158C13.4399 10.5387 13.5813 12.0473 14.3513 13.163C14.6184 13.5716 14.7756 14.0587 14.7756 14.5459V21.0987C14.7756 22.5602 15.7027 23.8487 17.0856 24.3359L20.0556 25.3573V13.6973C20.2913 13.4773 20.4799 13.2101 20.6527 12.9116C20.9199 12.4559 21.077 11.953 21.1242 11.4659C21.6349 11.532 22.1538 11.4891 22.6468 11.3402C23.1397 11.1912 23.5955 10.9395 23.9842 10.6016C24.6442 11.1516 25.477 11.4973 26.4042 11.4973C26.5613 11.4973 26.7027 11.4816 26.8442 11.4659C26.936 12.3096 27.313 13.0968 27.9127 13.6973V25.373L30.8827 24.3516C32.2656 23.8801 33.1927 22.5759 33.1927 21.1144V14.5616C33.1927 14.0744 33.3499 13.5873 33.6327 13.1787C34.4499 12.0159 34.5599 10.4601 33.8213 9.17158Z" fill="#212121"/>
<path id="Vector_7" d="M18.9247 17.4993C18.9247 18.1953 18.6482 18.8628 18.1561 19.3549C17.6639 19.8471 16.9964 20.1236 16.3004 20.1236C15.6044 20.1236 14.9369 19.8471 14.4448 19.3549C13.9526 18.8628 13.6761 18.1953 13.6761 17.4993C13.6761 16.8033 13.9526 16.1358 14.4448 15.6436C14.9369 15.1515 15.6044 14.875 16.3004 14.875C16.9964 14.875 17.6639 15.1515 18.1561 15.6436C18.6482 16.1358 18.9247 16.8033 18.9247 17.4993ZM34.309 17.4993C34.309 18.1953 34.0325 18.8628 33.5404 19.3549C33.0482 19.8471 32.3807 20.1236 31.6847 20.1236C30.9887 20.1236 30.3212 19.8471 29.8291 19.3549C29.3369 18.8628 29.0604 18.1953 29.0604 17.4993C29.0604 16.8033 29.3369 16.1358 29.8291 15.6436C30.3212 15.1515 30.9887 14.875 31.6847 14.875C32.3807 14.875 33.0482 15.1515 33.5404 15.6436C34.0325 16.1358 34.309 16.8033 34.309 17.4993Z" fill="#F4C6AD"/>
<path id="Vector_8" d="M15.75 13.7265C15.8679 10.9451 18.2391 8.7168 21.1369 8.7168H23.1907C23.6339 8.7168 24.0126 8.97765 24.187 9.36108C24.8187 10.7251 26.2267 11.5831 27.7589 11.5831H30.0217C31.2851 11.6459 32.2814 12.6721 32.25 13.9135L32.2343 14.5169L31.0714 16.5739L31.9766 18.6671L31.744 22.3002C31.3166 25.3205 28.6766 27.5739 25.5306 27.5739H22.5276C19.3973 27.5739 16.7416 25.3205 16.3299 22.3002L16.0816 18.6231L16.9286 16.5739L15.8019 14.4918L15.75 13.7265Z" fill="#FFD7C2"/>
<path id="Vector_9" d="M23.9997 22.3969C23.1711 22.4007 22.3553 22.1925 21.63 21.7919C21.3896 21.6583 21.1491 21.9443 21.2937 22.1785C21.8704 23.1009 22.8636 23.7216 23.9997 23.7216C25.1374 23.7216 26.1306 23.1009 26.7073 22.1785C26.8519 21.9428 26.5957 21.6756 26.371 21.7919C25.6444 22.1908 24.8286 22.3989 23.9997 22.3969Z" fill="#990838"/>
<path id="Vector_10" d="M30.1604 14.0722L30.2358 14.1194C30.5736 14.3394 30.9586 14.4651 31.3436 14.4965H32.2504L32.0036 18.6765H31.1896C30.8974 18.6765 30.6208 18.7394 30.3584 18.8651L29.9435 19.0537L29.5742 19.1951L29.2976 19.2894C28.6534 19.5251 27.9305 19.5408 27.2689 19.3522L26.7912 19.2108C26.6063 19.1591 26.4264 19.0907 26.2538 19.0065L25.9301 18.8494C25.6714 18.7243 25.3877 18.6598 25.1004 18.6608H22.8375C22.5502 18.6596 22.2664 18.7241 22.0078 18.8494L21.6542 19.0222C21.5002 19.1008 21.3305 19.1637 21.1624 19.2108L20.7318 19.3365C20.0702 19.5251 19.3631 19.5094 18.7015 19.3051L18.3636 19.1951C18.2221 19.1442 18.0832 19.0865 17.9472 19.0222L17.5638 18.8337C17.3046 18.7084 17.0203 18.6439 16.7325 18.6451H15.9939L15.7488 14.4651H16.5644C16.9635 14.4651 17.3485 14.3394 17.6864 14.1194L17.7335 14.0722C18.0242 13.8837 18.3322 13.7265 18.6559 13.6165L18.7172 13.6008C19.3772 13.3808 20.0844 13.3808 20.7459 13.5694L20.8842 13.6165C21.2378 13.7265 21.5756 13.8837 21.8836 14.1037L21.8994 14.1194C22.2231 14.3394 22.6065 14.4651 23.0072 14.4651H24.9134C25.3141 14.4651 25.6991 14.3551 26.0212 14.1194C26.3434 13.8837 26.6969 13.7265 27.0662 13.6165L27.2658 13.5694C27.9274 13.3808 28.6345 13.3965 29.2961 13.6322C29.6041 13.7422 29.8963 13.8837 30.1572 14.0722H30.1604Z" fill="#F8312F"/>
<path id="Vector_11" d="M23.4568 17.0284L22.6774 19.7595C22.5155 20.3189 22.8974 20.8941 23.4427 20.8941H24.5898C25.132 20.8941 25.5154 20.3189 25.3535 19.7595L24.5741 17.0284C24.4122 16.4202 23.6313 16.4202 23.4568 17.0284Z" fill="#E5AF93"/>
<path id="Vector_12" d="M17.9969 17.0135C18.2326 16.0393 19.1126 15.3164 20.1655 15.3164C21.2655 15.3164 22.1612 16.0864 22.3655 17.1236C22.3774 17.1771 22.377 17.2327 22.3643 17.2861C22.3516 17.3395 22.3269 17.3892 22.292 17.4316C22.2572 17.474 22.2132 17.508 22.1633 17.5308C22.1134 17.5537 22.0589 17.5649 22.0041 17.5635H18.4212C18.1384 17.5635 17.9184 17.2807 17.9969 17.0135ZM30.0184 17.0135C29.7826 16.0393 28.9026 15.3164 27.8498 15.3164C26.7498 15.3164 25.8541 16.0864 25.6498 17.1236C25.6026 17.3593 25.7755 17.5635 26.0112 17.5635H29.5941C29.8769 17.5635 30.0812 17.2964 30.0184 17.0135Z" fill="white"/>
<path id="Vector_13" d="M19.0652 17.1859C19.0652 16.4002 19.7095 15.7559 20.4952 15.7559C20.6836 15.7538 20.8705 15.7894 21.0449 15.8605C21.2194 15.9316 21.3778 16.0369 21.511 16.1701C21.6442 16.3033 21.7495 16.4618 21.8206 16.6362C21.8917 16.8107 21.9273 16.9976 21.9252 17.1859C21.9252 17.3117 21.9095 17.4374 21.878 17.5631H19.1123C19.0812 17.4398 19.0654 17.3131 19.0652 17.1859ZM28.9495 17.1859C28.9495 16.4002 28.3052 15.7559 27.5195 15.7559C26.718 15.7559 26.0895 16.4002 26.0895 17.1859C26.0895 17.3117 26.1052 17.4374 26.1366 17.5631H28.9023C28.9338 17.4374 28.9495 17.3117 28.9495 17.1859Z" fill="#7D4533"/>
<path id="Vector_14" d="M20.4955 16.3692C20.6364 16.3677 20.7753 16.403 20.8984 16.4716C21.0215 16.5401 21.1247 16.6396 21.1976 16.7601C21.2706 16.8807 21.3109 17.0182 21.3145 17.159C21.3182 17.2999 21.285 17.4393 21.2184 17.5635H19.7727C19.706 17.4393 19.6729 17.2999 19.6765 17.159C19.6802 17.0182 19.7205 16.8807 19.7934 16.7601C19.8664 16.6396 19.9695 16.5401 20.0926 16.4716C20.2158 16.403 20.3546 16.3677 20.4955 16.3692ZM27.5198 16.3692C27.3789 16.3677 27.2401 16.403 27.1169 16.4716C26.9938 16.5401 26.8907 16.6396 26.8177 16.7601C26.7448 16.8807 26.7045 17.0182 26.7008 17.159C26.6972 17.2999 26.7303 17.4393 26.797 17.5635H28.2427C28.3093 17.4393 28.3425 17.2999 28.3388 17.159C28.3352 17.0182 28.2949 16.8807 28.2219 16.7601C28.1489 16.6396 28.0458 16.5401 27.9227 16.4716C27.7996 16.403 27.6607 16.3677 27.5198 16.3692Z" fill="#422900"/>
<path id="Vector_15" d="M20.2597 16.6049C20.2597 16.6716 20.2332 16.7356 20.1861 16.7827C20.1389 16.8299 20.0749 16.8564 20.0083 16.8564C19.9416 16.8564 19.8776 16.8299 19.8305 16.7827C19.7833 16.7356 19.7568 16.6716 19.7568 16.6049C19.7568 16.5383 19.7833 16.4743 19.8305 16.4272C19.8776 16.38 19.9416 16.3535 20.0083 16.3535C20.0749 16.3535 20.1389 16.38 20.1861 16.4272C20.2332 16.4743 20.2597 16.5383 20.2597 16.6049ZM27.3311 16.6049C27.3311 16.6716 27.3046 16.7356 27.2575 16.7827C27.2103 16.8299 27.1464 16.8564 27.0797 16.8564C27.013 16.8564 26.9491 16.8299 26.9019 16.7827C26.8548 16.7356 26.8283 16.6716 26.8283 16.6049C26.8283 16.5383 26.8548 16.4743 26.9019 16.4272C26.9491 16.38 27.013 16.3535 27.0797 16.3535C27.1464 16.3535 27.2103 16.38 27.2575 16.4272C27.3046 16.4743 27.3311 16.5383 27.3311 16.6049Z" fill="white"/>
</g>
<path id="Exclude" fill-rule="evenodd" clip-rule="evenodd" d="M24 48C37.2548 48 48 37.2548 48 24V48H24ZM0 24C0 37.2548 10.7452 48 24 48H0V24ZM24 0C10.7452 0 0 10.7452 0 24V0H24ZM24 0H48V24C48 10.7452 37.2548 0 24 0Z" fill="white"/>
</g>
</svg>
