<svg width="20" height="20" viewBox="0 0 20 20" fill="none" xmlns="http://www.w3.org/2000/svg">
<g id="ic:outline-share">
<path id="Vector" d="M15 13.3993C14.3667 13.3993 13.8 13.6494 13.3667 14.041L7.425 10.5827C7.46667 10.391 7.5 10.1993 7.5 9.99935C7.5 9.79935 7.46667 9.60768 7.425 9.41602L13.3 5.99102C13.75 6.40768 14.3417 6.66602 15 6.66602C16.3833 6.66602 17.5 5.54935 17.5 4.16602C17.5 2.78268 16.3833 1.66602 15 1.66602C13.6167 1.66602 12.5 2.78268 12.5 4.16602C12.5 4.36602 12.5333 4.55768 12.575 4.74935L6.7 8.17435C6.25 7.75768 5.65833 7.49935 5 7.49935C3.61667 7.49935 2.5 8.61602 2.5 9.99935C2.5 11.3827 3.61667 12.4993 5 12.4993C5.65833 12.4993 6.25 12.241 6.7 11.8243L12.6333 15.291C12.5917 15.466 12.5667 15.6493 12.5667 15.8327C12.5667 17.1743 13.6583 18.266 15 18.266C16.3417 18.266 17.4333 17.1743 17.4333 15.8327C17.4333 14.491 16.3417 13.3993 15 13.3993ZM15 3.33268C15.4583 3.33268 15.8333 3.70768 15.8333 4.16602C15.8333 4.62435 15.4583 4.99935 15 4.99935C14.5417 4.99935 14.1667 4.62435 14.1667 4.16602C14.1667 3.70768 14.5417 3.33268 15 3.33268ZM5 10.8327C4.54167 10.8327 4.16667 10.4577 4.16667 9.99935C4.16667 9.54102 4.54167 9.16602 5 9.16602C5.45833 9.16602 5.83333 9.54102 5.83333 9.99935C5.83333 10.4577 5.45833 10.8327 5 10.8327ZM15 16.6827C14.5417 16.6827 14.1667 16.3077 14.1667 15.8493C14.1667 15.391 14.5417 15.016 15 15.016C15.4583 15.016 15.8333 15.391 15.8333 15.8493C15.8333 16.3077 15.4583 16.6827 15 16.6827Z" fill="black"/>
</g>
</svg>
