<svg width="20" height="20" viewBox="0 0 20 20" fill="none" xmlns="http://www.w3.org/2000/svg">
<g id="iconamoon:heart-fill">
<path id="Vector" fill-rule="evenodd" clip-rule="evenodd" d="M3.5183 4.47021C4.3613 3.62751 5.47753 3.11357 6.6659 3.02098C7.85426 2.92839 9.03663 3.26325 9.99997 3.96521C11.0177 3.2289 12.2752 2.90248 13.5225 3.05082C14.7698 3.19917 15.9157 3.81142 16.7323 4.76589C17.5489 5.72036 17.9765 6.94715 17.9301 8.20242C17.8836 9.4577 17.3666 10.6495 16.4816 11.541L11.7675 16.2552C11.2987 16.7239 10.6629 16.9872 9.99997 16.9872C9.33706 16.9872 8.70129 16.7239 8.23247 16.2552L3.5183 11.5419C2.58069 10.6042 2.05396 9.33249 2.05396 8.00646C2.05396 6.68044 2.58069 5.40789 3.5183 4.47021Z" fill="#E41635"/>
</g>
</svg>
