<svg width="12" height="12" viewBox="0 0 12 12" fill="none" xmlns="http://www.w3.org/2000/svg">
<g id="iconamoon:heart-fill">
<path id="Vector" fill-rule="evenodd" clip-rule="evenodd" d="M2.11103 2.68135C2.61683 2.17572 3.28657 1.86736 3.99959 1.81181C4.71261 1.75625 5.42203 1.95717 6.00003 2.37835C6.61065 1.93656 7.36515 1.74071 8.11355 1.82971C8.86196 1.91872 9.54947 2.28607 10.0394 2.85875C10.5294 3.43143 10.786 4.16751 10.7581 4.92067C10.7302 5.67384 10.42 6.38894 9.88903 6.92385L7.06053 9.75235C6.77924 10.0336 6.39778 10.1915 6.00003 10.1915C5.60229 10.1915 5.22082 10.0336 4.93953 9.75235L2.11103 6.92435C1.54847 6.36174 1.23242 5.59871 1.23242 4.8031C1.23242 4.00748 1.54847 3.24395 2.11103 2.68135Z" fill="white"/>
</g>
</svg>
