<svg width="16" height="16" viewBox="0 0 16 16" fill="none" xmlns="http://www.w3.org/2000/svg">
<g id="mi:clock">
<path id="Vector" d="M7.99992 2.66732C6.58543 2.66732 5.22888 3.22922 4.22868 4.22941C3.22849 5.22961 2.66659 6.58616 2.66659 8.00065C2.66659 9.41514 3.22849 10.7717 4.22868 11.7719C5.22888 12.7721 6.58543 13.334 7.99992 13.334C9.41441 13.334 10.771 12.7721 11.7712 11.7719C12.7713 10.7717 13.3333 9.41514 13.3333 8.00065C13.3333 6.58616 12.7713 5.22961 11.7712 4.22941C10.771 3.22922 9.41441 2.66732 7.99992 2.66732ZM1.33325 8.00065C1.33325 4.31865 4.31792 1.33398 7.99992 1.33398C11.6819 1.33398 14.6666 4.31865 14.6666 8.00065C14.6666 11.6827 11.6819 14.6673 7.99992 14.6673C4.31792 14.6673 1.33325 11.6827 1.33325 8.00065ZM7.99992 4.00065C8.17673 4.00065 8.3463 4.07089 8.47132 4.19591C8.59635 4.32094 8.66658 4.49051 8.66658 4.66732V7.72465L10.4713 9.52932C10.5927 9.65505 10.6599 9.82345 10.6584 9.99825C10.6568 10.173 10.5867 10.3403 10.4631 10.4639C10.3395 10.5875 10.1723 10.6576 9.99752 10.6591C9.82272 10.6606 9.65432 10.5934 9.52858 10.472L7.52858 8.47198C7.40355 8.34699 7.33329 8.17745 7.33325 8.00065V4.66732C7.33325 4.49051 7.40349 4.32094 7.52851 4.19591C7.65354 4.07089 7.82311 4.00065 7.99992 4.00065Z" fill="#C08261"/>
</g>
</svg>
