<svg width="26" height="26" viewBox="0 0 26 26" fill="none" xmlns="http://www.w3.org/2000/svg">
<g id="prime:bell">
<path id="Vector" d="M22.2409 17.6048C22.1434 17.6048 19.9551 17.2148 19.9551 10.834C19.9551 6.32732 17.3334 3.52148 13.0001 3.52148C8.66675 3.52148 6.04508 6.32732 6.04508 10.834C6.04508 17.334 3.78091 17.6048 3.79175 17.6048C3.57626 17.6048 3.3696 17.6904 3.21722 17.8428C3.06485 17.9952 2.97925 18.2018 2.97925 18.4173C2.97925 18.6328 3.06485 18.8395 3.21722 18.9918C3.3696 19.1442 3.57626 19.2298 3.79175 19.2298H9.02425C9.2051 20.1514 9.70049 20.9815 10.4257 21.5783C11.1509 22.175 12.0609 22.5013 13.0001 22.5013C13.9392 22.5013 14.8492 22.175 15.5745 21.5783C16.2997 20.9815 16.7951 20.1514 16.9759 19.2298H22.2192C22.4347 19.2298 22.6414 19.1442 22.7938 18.9918C22.9461 18.8395 23.0317 18.6328 23.0317 18.4173C23.0317 18.2018 22.9461 17.9952 22.7938 17.8428C22.6414 17.6904 22.4347 17.6048 22.2192 17.6048H22.2409ZM13.0001 20.8548C12.4977 20.8539 12.0081 20.697 11.5986 20.406C11.1892 20.1149 10.8802 19.704 10.7142 19.2298H15.2859C15.12 19.704 14.811 20.1149 14.4015 20.406C13.9921 20.697 13.5024 20.8539 13.0001 20.8548ZM6.24008 17.6048C7.02008 16.424 7.67008 14.3548 7.67008 10.834C7.67008 7.31315 9.62008 5.14648 13.0001 5.14648C16.3801 5.14648 18.3301 7.21565 18.3301 10.834C18.3301 14.4523 18.9801 16.424 19.7601 17.6048H6.24008Z" fill="#422900"/>
</g>
</svg>
